<svg enable-background="new 0 0 159.438 159.438" height="159.438" viewBox="0 0 159.438 159.438" width="159.438" xmlns="http://www.w3.org/2000/svg"><path d="m157.824 45.67c-1.456-1.089-3.449-1.073-4.884.029l-41.96 32.031-27.554-62.229c-1.309-2.932-6.104-2.932-7.412 0l-27.865 62.944-41.594-32.714c-1.442-1.124-3.452-1.155-4.915-.071-1.469 1.076-2.025 3.019-1.366 4.714l28.901 74.672c.599 1.562 2.104 2.584 3.773 2.584h93.54c1.677 0 3.175-1.018 3.771-2.584l28.903-74.672c.66-1.689.106-3.617-1.338-4.704zm-78.1-18.525 24.632 55.646-25.724 19.633-23.904-18.795zm-34.955 58.946-11.729 26.494-19.877-51.355zm-5.946 33.445 12.524-28.276 20.637 16.231-15.783 12.045zm30.728 0 9.007-6.866 8.738 6.866zm30.56-.233-14.908-11.723 22.513-17.191 12.904 29.136h-20.245c-.074-.068-.169-.148-.264-.222zm26.299-6.718-12.055-27.248 32.078-24.487zm3.713 29.499c0 2.236-1.814 4.051-4.051 4.051h-92.701c-2.236 0-4.05-1.814-4.05-4.051 0-2.235 1.814-4.05 4.05-4.05h92.701c2.241.001 4.051 1.815 4.051 4.05z"/></svg>